<?xml version="1.0" standalone="no"?>
<!DOCTYPE svg PUBLIC "-//W3C//DTD SVG 20010904//EN"
 "http://www.w3.org/TR/2001/REC-SVG-20010904/DTD/svg10.dtd">
<svg version="1.0" xmlns="http://www.w3.org/2000/svg"
 width="700.000000pt" height="700.000000pt" viewBox="0 0 700.000000 700.000000"
 preserveAspectRatio="xMidYMid meet">
<metadata>
Created by potrace 1.11, written by Peter Selinger 2001-2013
</metadata>
<g transform="translate(0.000000,700.000000) scale(0.100000,-0.100000)"
fill="#000000" stroke="none">
<path d="M1620 6489 c-36 -5 -90 -11 -120 -14 -30 -4 -75 -11 -100 -17 -25 -5
-61 -12 -80 -15 -58 -8 -249 -69 -340 -108 -430 -184 -744 -535 -883 -985 -69
-223 -92 -393 -91 -675 0 -180 9 -255 46 -413 61 -261 215 -579 411 -847 174
-238 308 -382 726 -785 112 -107 233 -224 270 -260 245 -236 514 -496 561
-540 30 -29 154 -147 274 -264 121 -116 240 -231 266 -256 103 -99 318 -306
532 -512 123 -120 241 -231 261 -247 74 -58 197 -64 274 -13 22 15 145 128
273 252 128 124 263 254 300 290 67 64 404 389 649 626 69 67 151 146 182 175
31 30 157 151 280 271 123 119 256 246 294 283 598 574 643 619 735 730 173
208 319 417 411 590 66 125 166 383 184 478 2 9 6 21 10 26 7 13 24 99 40 206
12 85 13 415 2 475 -3 14 -8 52 -12 85 -4 32 -9 68 -11 80 -67 349 -206 642
-405 852 -242 256 -538 416 -910 492 -93 19 -112 22 -249 38 -138 15 -426 9
-531 -12 -13 -3 -37 -8 -54 -11 -35 -6 -161 -41 -190 -53 -11 -5 -58 -23 -105
-41 -125 -48 -256 -119 -425 -233 -82 -55 -152 -103 -155 -106 -3 -3 -32 -26
-65 -50 -82 -61 -227 -183 -303 -256 -35 -33 -67 -60 -72 -60 -5 0 -37 27 -72
60 -229 217 -584 472 -814 585 -112 55 -328 135 -394 146 -14 2 -45 9 -70 14
-25 5 -58 13 -75 16 -45 9 -381 11 -455 3z"/>
</g>
</svg>
