<svg style="position: absolute; width: 0; height: 0;" width="0" height="0" version="1.1" xmlns="http://www.w3.org/2000/svg" xmlns:xlink="http://www.w3.org/1999/xlink">
<defs>
<symbol id="icon-close" viewBox="0 0 804.5720672607422 1024">
<title>close</title>
<path class="path1" d="M741.714 755.429q0 22.857-16 38.857l-77.714 77.714q-16 16-38.857 16t-38.857-16l-168-168-168 168q-16 16-38.857 16t-38.857-16l-77.714-77.714q-16-16-16-38.857t16-38.857l168-168-168-168q-16-16-16-38.857t16-38.857l77.714-77.714q16-16 38.857-16t38.857 16l168 168 168-168q16-16 38.857-16t38.857 16l77.714 77.714q16 16 16 38.857t-16 38.857l-168 168 168 168q16 16 16 38.857z"></path>
</symbol>
<symbol id="icon-calendar" viewBox="0 0 950.8564020792255 1024">
<title>calendar</title>
<path class="path1" d="M73.143 950.857h164.571v-164.571h-164.571v164.571zM274.286 950.857h182.857v-164.571h-182.857v164.571zM73.143 749.714h164.571v-182.857h-164.571v182.857zM274.286 749.714h182.857v-182.857h-182.857v182.857zM73.143 530.286h164.571v-164.571h-164.571v164.571zM493.714 950.857h182.857v-164.571h-182.857v164.571zM274.286 530.286h182.857v-164.571h-182.857v164.571zM713.143 950.857h164.571v-164.571h-164.571v164.571zM493.714 749.714h182.857v-182.857h-182.857v182.857zM292.571 256v-164.571q0-7.429-5.429-12.857t-12.857-5.429h-36.571q-7.429 0-12.857 5.429t-5.429 12.857v164.571q0 7.429 5.429 12.857t12.857 5.429h36.571q7.429 0 12.857-5.429t5.429-12.857zM713.143 749.714h164.571v-182.857h-164.571v182.857zM493.714 530.286h182.857v-164.571h-182.857v164.571zM713.143 530.286h164.571v-164.571h-164.571v164.571zM731.429 256v-164.571q0-7.429-5.429-12.857t-12.857-5.429h-36.571q-7.429 0-12.857 5.429t-5.429 12.857v164.571q0 7.429 5.429 12.857t12.857 5.429h36.571q7.429 0 12.857-5.429t5.429-12.857zM950.857 219.429v731.429q0 29.714-21.714 51.429t-51.429 21.714h-804.571q-29.714 0-51.429-21.714t-21.714-51.429v-731.429q0-29.714 21.714-51.429t51.429-21.714h73.143v-54.857q0-37.714 26.857-64.571t64.571-26.857h36.571q37.714 0 64.571 26.857t26.857 64.571v54.857h219.429v-54.857q0-37.714 26.857-64.571t64.571-26.857h36.571q37.714 0 64.571 26.857t26.857 64.571v54.857h73.143q29.714 0 51.429 21.714t21.714 51.429z"></path>
</symbol>
<symbol id="icon-calendar-o" viewBox="0 0 950.8564020792255 1024">
<title>calendar-o</title>
<path class="path1" d="M73.143 950.857h804.571v-585.143h-804.571v585.143zM292.571 256v-164.571q0-8-5.143-13.143t-13.143-5.143h-36.571q-8 0-13.143 5.143t-5.143 13.143v164.571q0 8 5.143 13.143t13.143 5.143h36.571q8 0 13.143-5.143t5.143-13.143zM731.429 256v-164.571q0-8-5.143-13.143t-13.143-5.143h-36.571q-8 0-13.143 5.143t-5.143 13.143v164.571q0 8 5.143 13.143t13.143 5.143h36.571q8 0 13.143-5.143t5.143-13.143zM950.857 219.429v731.429q0 29.714-21.714 51.429t-51.429 21.714h-804.571q-29.714 0-51.429-21.714t-21.714-51.429v-731.429q0-29.714 21.714-51.429t51.429-21.714h73.143v-54.857q0-37.714 26.857-64.571t64.571-26.857h36.571q37.714 0 64.571 26.857t26.857 64.571v54.857h219.429v-54.857q0-37.714 26.857-64.571t64.571-26.857h36.571q37.714 0 64.571 26.857t26.857 64.571v54.857h73.143q29.714 0 51.429 21.714t21.714 51.429z"></path>
</symbol>
<symbol id="icon-space-shuttle" viewBox="0 0 1243.428092956543 1024">
<title>space-shuttle</title>
<path class="path1" d="M354.286 640q-62.857 36.571-153.143 36.571h-73.143v-36.571h-36.571q-7.429 0-12.857-13.429t-5.429-32.286q0-13.714 4-28-33.143-1.143-55.143-6t-22-11.714 22-11.714 55.143-6q-4-14.286-4-28 0-18.857 5.429-32.286t12.857-13.429h36.571v-36.571h73.143q90.286 0 153.143 36.571h636q24 4 60.857 10.286t46 8q50.857 8.571 85.714 23.143t47.714 27.143 12.857 22.857-12.857 22.857-47.714 27.143-85.714 23.143q-9.143 1.714-46 8t-60.857 10.286h-636zM993.714 496q30.286 20.571 30.286 52.571t-30.286 52.571l46.286 17.143q38.857-27.429 38.857-69.714t-38.857-69.714zM357.143 649.143h580q-124 21.714-260.571 45.714-32.571 0-64.571 13.714t-47.429 27.429l-16 13.714-164.571 164.571q-14.857 14.857-40.286 25.714t-51.143 10.857h-54.857l-53.143-265.143h16.571q89.714 0 156-36.571zM201.143 411.429h-16.571l53.143-265.143h54.857q26.286 0 51.429 10.857t40 25.714l164.571 164.571q2.286 2.286 6.286 6t17.429 13.143 27.714 16.571 35.143 13.143 41.429 6l260.571 45.714h-580q-66.286-36.571-156-36.571z"></path>
</symbol>
<symbol id="icon-cab" viewBox="0 0 1170.2871084213257 1024">
<title>cab</title>
<path class="path1" d="M1042.286 512q53.143 0 90.571 37.429t37.429 90.571v219.429q0 8-5.143 13.143t-13.143 5.143h-54.857v36.571q0 45.714-32 77.714t-77.714 32-77.714-32-32-77.714v-36.571h-585.143v36.571q0 45.714-32 77.714t-77.714 32-77.714-32-32-77.714v-36.571h-54.857q-8 0-13.143-5.143t-5.143-13.143v-219.429q0-53.143 37.429-90.571t90.571-37.429h16l60-239.429q13.143-53.714 59.429-90t102.286-36.286h73.143v-128q0-8 5.143-13.143t13.143-5.143h256q8 0 13.143 5.143t5.143 13.143v128h73.143q56 0 102.286 36.286t59.429 90l60 239.429h16zM182.857 786.286q37.714 0 64.571-26.857t26.857-64.571-26.857-64.571-64.571-26.857-64.571 26.857-26.857 64.571 26.857 64.571 64.571 26.857zM294.857 512h580.571l-50.857-204q-1.143-4.571-8-10t-12-5.429h-438.857q-5.143 0-12 5.429t-8 10zM987.429 786.286q37.714 0 64.571-26.857t26.857-64.571-26.857-64.571-64.571-26.857-64.571 26.857-26.857 64.571 26.857 64.571 64.571 26.857z"></path>
</symbol>
<symbol id="icon-bus" viewBox="0 0 877.7129669189453 1024">
<title>bus</title>
<path class="path1" d="M219.429 694.857q0-30.286-21.429-51.714t-51.714-21.429-51.714 21.429-21.429 51.714 21.429 51.714 51.714 21.429 51.714-21.429 21.429-51.714zM804.571 694.857q0-30.286-21.429-51.714t-51.714-21.429-51.714 21.429-21.429 51.714 21.429 51.714 51.714 21.429 51.714-21.429 21.429-51.714zM778.286 468.571l-41.143-219.429q-2.857-13.143-12.857-21.429t-23.143-8.286h-524.571q-13.143 0-23.143 8.286t-12.857 21.429l-41.143 219.429q-2.857 17.143 8 30.286t28 13.143h606.857q17.143 0 28-13.143t8-30.286zM649.143 118.857q0-11.429-8-19.429t-19.429-8h-365.714q-11.429 0-19.429 8t-8 19.429 8 19.429 19.429 8h365.714q11.429 0 19.429-8t8-19.429zM877.714 533.143v344.571h-73.143v73.143q0 30.286-21.429 51.714t-51.714 21.429-51.714-21.429-21.429-51.714v-73.143h-438.857v73.143q0 30.286-21.429 51.714t-51.714 21.429-51.714-21.429-21.429-51.714v-73.143h-73.143v-344.571q0-64 14.286-127.429l58.857-259.429q5.143-44.571 55.714-78.286t131.429-50.857 178.571-17.143 178.571 17.143 131.429 50.857 55.714 78.286l60 259.429q13.143 58.286 13.143 127.429z"></path>
</symbol>
<symbol id="icon-ship" viewBox="0 0 1170.2848663330078 1024">
<title>ship</title>
<path class="path1" d="M1034.857 888.571q10.857-10.857 25.714-10.857t25.714 10.857l73.143 73.143-51.429 51.429-47.429-47.429-47.429 47.429q-10.286 10.857-25.714 10.857t-25.714-10.857l-47.429-47.429-47.429 47.429q-10.857 10.857-25.714 10.857t-25.714-10.857l-47.429-47.429-47.429 47.429q-10.857 10.857-25.714 10.857t-25.714-10.857l-47.429-47.429-47.429 47.429q-10.857 10.857-25.714 10.857t-25.714-10.857l-47.429-47.429-47.429 47.429q-10.857 10.857-25.714 10.857t-25.714-10.857l-47.429-47.429-47.429 47.429q-10.857 10.857-25.714 10.857t-25.714-10.857l-47.429-47.429-47.429 47.429q-10.857 10.857-25.714 10.857t-25.714-10.857l-73.143-73.143 51.429-51.429 47.429 47.429 47.429-47.429q10.857-10.857 25.714-10.857t25.714 10.857l47.429 47.429 47.429-47.429q10.857-10.857 25.714-10.857t25.714 10.857l47.429 47.429 47.429-47.429q10.857-10.857 25.714-10.857t25.714 10.857l47.429 47.429 47.429-47.429q10.857-10.857 25.714-10.857t25.714 10.857l47.429 47.429 47.429-47.429q10.857-10.857 25.714-10.857t25.714 10.857l47.429 47.429 47.429-47.429q10.857-10.857 25.714-10.857t25.714 10.857l47.429 47.429zM135.429 866.857q-10.857 10.857-25.714 10.857t-25.714-10.857l-73.143-73.143 51.429-51.429 47.429 46.857 47.429-46.857q10.857-10.857 25.714-10.857t25.714 10.857l47.429 46.857 36.571-36.571v-167.429l-120-179.429q-9.714-14.857-4-32.286t22.857-23.143l101.143-33.143v-170.857h73.143v-73.143h146.286v-73.143h146.286v73.143h146.286v73.143h73.143v170.857l101.143 33.143q17.143 5.714 22.857 23.143t-4 32.286l-120 179.429v167.429l10.857-10.286q10.857-10.857 25.714-10.857t25.714 10.857l47.429 46.857 47.429-46.857q10.857-10.857 25.714-10.857t25.714 10.857l73.143 73.143-51.429 51.429-47.429-47.429-47.429 47.429q-10.286 10.857-25.714 10.857t-25.714-10.857l-47.429-47.429-47.429 47.429q-10.857 10.857-25.714 10.857t-25.714-10.857l-47.429-47.429-47.429 47.429q-10.857 10.857-25.714 10.857t-25.714-10.857l-47.429-47.429-47.429 47.429q-10.857 10.857-25.714 10.857t-25.714-10.857l-47.429-47.429-47.429 47.429q-10.857 10.857-25.714 10.857t-25.714-10.857l-47.429-47.429-47.429 47.429q-10.857 10.857-25.714 10.857t-25.714-10.857l-47.429-47.429zM365.714 219.429v73.143l219.429-73.143 219.429 73.143v-73.143h-73.143v-73.143h-292.571v73.143h-73.143z"></path>
</symbol>
<symbol id="icon-motorcycle" viewBox="0 0 1319.4293263753643 1024">
<title>motorcycle</title>
<path class="path1" d="M1314.857 592q6.857 58.857-12.571 113.429t-56.571 93.429-90.571 60.571-112.286 17.714q-92-6.286-159.714-71.429t-76.857-156.571q-6.857-63.429 15.714-120.286t67.714-97.429l-40.571-61.143q-54.857 45.714-86.286 110.857t-31.429 139.429q0 15.429-10.571 26.571t-26 11.143h-185.714q-13.143 93.714-85.143 156.571t-168 62.857q-105.714 0-180.857-75.143t-75.143-180.857 75.143-180.857 180.857-75.143q43.429 0 86.857 15.429l13.714-25.714q-70.286-62.857-173.714-62.857h-36.571q-14.857 0-25.714-10.857t-10.857-25.714 10.857-25.714 25.714-10.857h73.143q44.571 0 82.857 7.714t66.571 22 40.857 22.571 29.143 20.857h358.286l-48.571-73.143h-126.857q-17.143 0-28-12.857t-8-30q2.286-13.143 13.143-21.714t24.571-8.571h144.571q18.857 0 30.286 16l40 60 65.143-65.143q10.857-10.857 26.286-10.857h57.714q14.857 0 25.714 10.857t10.857 25.714v73.143q0 14.857-10.857 25.714t-25.714 10.857h-102.286l65.714 98.286q74.857-36 157.143-20.571 81.714 14.857 139.429 76.857t67.429 144.857zM256 804.571q65.714 0 116-41.429t63.429-104.857h-179.429q-20 0-31.429-17.714-10.286-18.286-0.571-36l84-158.286q-26.857-7.429-52-7.429-75.429 0-129.143 53.714t-53.714 129.143 53.714 129.143 129.143 53.714zM1060.571 804.571q75.429 0 129.143-53.714t53.714-129.143-53.714-129.143-129.143-53.714q-34.286 0-69.143 13.714l99.429 148.571q8.571 13.143 5.714 28t-15.429 22.857q-8.571 6.286-20.571 6.286-20 0-30.286-16.571l-99.429-148.571q-53.143 54.286-53.143 128.571 0 75.429 53.714 129.143t129.143 53.714z"></path>
</symbol>
<symbol id="icon-bed" viewBox="0 0 1170.2860412597656 1024">
<title>bed</title>
<path class="path1" d="M146.286 585.143h987.429q14.857 0 25.714 10.857t10.857 25.714v256h-146.286v-146.286h-877.714v146.286h-146.286v-694.857q0-14.857 10.857-25.714t25.714-10.857h73.143q14.857 0 25.714 10.857t10.857 25.714v402.286zM475.429 402.286q0-60.571-42.857-103.429t-103.429-42.857-103.429 42.857-42.857 103.429 42.857 103.429 103.429 42.857 103.429-42.857 42.857-103.429zM1170.286 548.571v-36.571q0-90.857-64.286-155.143t-155.143-64.286h-402.286q-14.857 0-25.714 10.857t-10.857 25.714v219.429h658.286z"></path>
</symbol>
<symbol id="icon-calendar-check-o" viewBox="0 0 950.8564020792255 1024">
<title>calendar-check-o</title>
<path class="path1" d="M744.571 550.857l-292.571 292.571q-5.714 5.143-13.143 5.143t-13.143-5.143l-164.571-164.571q-5.143-5.714-5.143-13.143t5.143-12.571l26.286-26.286q5.143-5.143 12.571-5.143t13.143 5.143l125.714 125.714 253.714-253.714q5.714-5.143 13.143-5.143t12.571 5.143l26.286 26.286q5.143 5.143 5.143 12.571t-5.143 13.143zM73.143 950.857h804.571v-585.143h-804.571v585.143zM292.571 256v-164.571q0-8-5.143-13.143t-13.143-5.143h-36.571q-8 0-13.143 5.143t-5.143 13.143v164.571q0 8 5.143 13.143t13.143 5.143h36.571q8 0 13.143-5.143t5.143-13.143zM731.429 256v-164.571q0-8-5.143-13.143t-13.143-5.143h-36.571q-8 0-13.143 5.143t-5.143 13.143v164.571q0 8 5.143 13.143t13.143 5.143h36.571q8 0 13.143-5.143t5.143-13.143zM950.857 219.429v731.429q0 29.714-21.714 51.429t-51.429 21.714h-804.571q-29.714 0-51.429-21.714t-21.714-51.429v-731.429q0-29.714 21.714-51.429t51.429-21.714h73.143v-54.857q0-37.714 26.857-64.571t64.571-26.857h36.571q37.714 0 64.571 26.857t26.857 64.571v54.857h219.429v-54.857q0-37.714 26.857-64.571t64.571-26.857h36.571q37.714 0 64.571 26.857t26.857 64.571v54.857h73.143q29.714 0 51.429 21.714t21.714 51.429z"></path>
</symbol>
<symbol id="icon-map-o" viewBox="0 0 1170.2869338989258 1024">
<title>map-o</title>
<path class="path1" d="M1154.286 6.286q16 11.429 16 30.286v804.571q0 11.429-6.286 20.571t-16.571 13.143l-365.714 146.286q-13.714 6.286-27.429 0l-352-140.571-352 140.571q-5.714 2.857-13.714 2.857-10.857 0-20.571-6.286-16-11.429-16-30.286v-804.571q0-11.429 6.286-20.571t16.571-13.143l365.714-146.286q13.714-6.286 27.429 0l352 140.571 352-140.571q18.286-7.429 34.286 3.429zM420.571 83.429v725.714l329.143 131.429v-725.714zM73.143 207.429v725.714l310.857-124v-725.714zM1097.143 816.571v-725.714l-310.857 124v725.714z"></path>
</symbol>
<symbol id="icon-map" viewBox="0 0 1023.9999904632568 1024">
<title>map</title>
<path class="path1" d="M292.571 0q7.429 0 12.857 5.429t5.429 12.857v841.143q0 11.429-9.714 16l-274.286 146.286q-4 2.286-8.571 2.286-7.429 0-12.857-5.429t-5.429-12.857v-841.143q0-11.429 9.714-16l274.286-146.286q4-2.286 8.571-2.286zM1005.714 0q7.429 0 12.857 5.429t5.429 12.857v841.143q0 11.429-9.714 16l-274.286 146.286q-4 2.286-8.571 2.286-7.429 0-12.857-5.429t-5.429-12.857v-841.143q0-11.429 9.714-16l274.286-146.286q4-2.286 8.571-2.286zM365.714 0q4.571 0 8 1.714l292.571 146.286q10.286 5.714 10.286 16.571v841.143q0 7.429-5.429 12.857t-12.857 5.429q-4.571 0-8-1.714l-292.571-146.286q-10.286-5.714-10.286-16.571v-841.143q0-7.429 5.429-12.857t12.857-5.429z"></path>
</symbol>
<symbol id="icon-fort-awesome" viewBox="0 0 950.860107421875 1024">
<title>fort-awesome</title>
<path class="path1" d="M365.714 576v-128q0-9.143-9.143-9.143h-54.857q-9.143 0-9.143 9.143v128q0 9.143 9.143 9.143h54.857q9.143 0 9.143-9.143zM658.286 576v-128q0-9.143-9.143-9.143h-54.857q-9.143 0-9.143 9.143v128q0 9.143 9.143 9.143h54.857q9.143 0 9.143-9.143zM950.857 594.286v429.714h-365.714v-182.857q0-45.714-32-77.714t-77.714-32-77.714 32-32 77.714v182.857h-365.714v-429.714q0-9.143 9.143-9.143h54.857q9.143 0 9.143 9.143v64h73.143v-356.571q0-9.143 9.143-9.143h54.857q9.143 0 9.143 9.143v64h73.143v-64q0-9.143 9.143-9.143h54.857q9.143 0 9.143 9.143v64h73.143v-64q0-9.143 9.143-9.143h9.143v-224.571q-18.286-10.857-18.286-31.429 0-14.857 10.857-25.714t25.714-10.857 25.714 10.857 10.857 25.714q0 20.571-18.286 31.429v5.143h155.429q9.143 0 9.143 9.143v128q0 9.143-9.143 9.143h-155.429v73.143h9.143q9.143 0 9.143 9.143v64h73.143v-64q0-9.143 9.143-9.143h54.857q9.143 0 9.143 9.143v64h73.143v-64q0-9.143 9.143-9.143h54.857q9.143 0 9.143 9.143v356.571h73.143v-64q0-9.143 9.143-9.143h54.857q9.143 0 9.143 9.143z"></path>
</symbol>
</defs>
</svg>
