<?xml version="1.0" encoding="UTF-8" standalone="no"?>
<!-- Created with Inkscape (http://www.inkscape.org/) -->
<svg
   xmlns:svg="http://www.w3.org/2000/svg"
   xmlns="http://www.w3.org/2000/svg"
   version="1.0"
   width="141.25874"
   height="20.151625"
   id="svg2"
   xml:space="preserve"><defs
     id="defs5"><clipPath
       id="clipPath17"><path
         d="M 0,792 L 612,792 L 612,0 L 0,0 L 0,792 z"
         id="path19" /></clipPath><clipPath
       id="clipPath49"><path
         d="M 0,792 L 612,792 L 612,0 L 0,0 L 0,792 z"
         id="path51" /></clipPath><clipPath
       id="clipPath1889"><path
         d="M 352.698,682.406 L 366.771,682.406 L 366.771,674.302 L 352.698,674.302 L 352.698,682.406 z"
         id="path1891" /></clipPath><clipPath
       id="clipPath1983"><path
         d="M 0,792 L 612,792 L 612,0 L 0,0 L 0,792 z"
         id="path1985" /></clipPath></defs><g
     transform="matrix(1.25,0,0,-1.25,-572.47125,931.61625)"
     id="g11"><g
       id="g5385"><path
         d="M 503.908,736.492 L 499.072,736.492 C 499.072,737.895 500.263,738.817 501.529,738.795 C 502.851,738.795 503.908,737.868 503.908,736.492 M 473.78,738.369 C 473.25,742.358 469.842,745.293 466.011,745.293 C 461.543,745.293 457.977,741.832 457.977,737.206 C 457.977,732.29 462.415,729.33 465.932,729.33 C 469.076,729.33 472.988,731.499 473.621,735.595 L 470.688,735.595 C 470.346,734.247 468.758,732.29 466.011,732.29 C 463.075,732.29 460.988,734.378 460.883,737.151 C 460.803,740.009 463.023,742.358 466.011,742.358 C 468.387,742.358 470.346,740.562 470.928,738.369 L 473.78,738.369 M 496.825,729.489 L 496.825,731.631 C 496.51,731.736 494.634,731.231 494.634,732.765 L 494.634,738.739 L 496.534,738.739 L 496.534,740.8 L 494.634,740.8 L 494.634,744.236 L 491.75,744.236 L 491.75,740.88 L 490.324,740.88 L 490.324,738.739 L 491.75,738.739 L 491.75,732.08 C 491.75,731.181 492.147,729.489 494.473,729.489 L 496.825,729.489 M 480.493,738.186 L 480.493,740.88 C 480.493,740.88 479.831,741.012 479.199,740.88 C 478.351,740.668 477.507,739.983 477.084,739.452 L 477.084,740.562 L 474.283,740.562 L 474.283,729.544 L 477.164,729.544 L 477.164,734.59 C 477.005,738.026 478.985,738.607 480.493,738.186 M 507.08,734.378 C 507.188,737.629 505.441,741.012 501.609,741.04 C 498.174,741.117 496.086,738.262 496.086,735.486 C 496.086,731.894 498.545,729.33 501.9,729.33 C 504.567,729.33 506.525,731.181 506.974,733.109 L 504.012,733.109 C 503.432,732.237 502.799,731.841 501.768,731.841 C 500.313,731.841 498.94,732.952 498.94,734.378 L 507.08,734.378 M 490.615,729.544 C 490.43,729.886 490.247,730.759 490.191,731.393 L 490.191,737.443 C 490.14,739.928 487.893,740.88 485.619,740.88 C 481.946,740.88 480.785,739.242 480.729,737.286 L 483.242,737.286 C 483.479,738.659 484.457,738.898 485.327,738.898 C 487.1,738.898 487.47,737.71 487.391,737.393 C 487.311,736.412 485.91,736.571 484.141,736.28 C 481.021,735.831 480.123,734.087 480.123,732.714 C 480.123,730.415 482.317,729.251 484.245,729.251 C 485.989,729.251 487.1,730.043 487.602,730.44 C 487.733,729.992 487.813,729.489 487.813,729.544 L 490.615,729.544 M 487.207,735.066 C 487.391,733.479 487.152,732.82 486.756,732.29 C 486.096,731.499 484.535,731.471 484.535,731.471 C 484.299,731.393 482.765,731.552 482.688,732.765 C 482.66,734.141 484.404,734.378 487.207,735.066"
         id="path21"
         style="fill:#231f20;fill-opacity:1;fill-rule:nonzero;stroke:none" /><path
         d="M 514.561,741.276 C 514.561,740.351 513.607,739.797 513.08,739.374 C 512.656,739.928 511.942,740.509 511.863,741.302 C 511.835,741.937 512.42,742.597 513.209,742.597 C 514.029,742.597 514.561,741.937 514.561,741.276 M 520.557,729.544 L 517.996,732.898 C 519.395,734.353 519.738,737.366 519.738,737.366 L 517.283,737.366 C 517.361,737.128 516.884,735.595 516.406,734.959 L 514.561,737.495 C 515.113,738.026 517.043,738.844 517.043,741.25 C 517.043,743.392 515.324,744.87 513.104,744.87 C 510.569,744.87 509.379,743.337 509.352,741.408 C 509.326,739.955 510.33,738.768 510.885,738.078 C 510.039,737.788 507.265,736.228 507.265,733.296 C 507.265,730.943 509.379,729.145 511.915,729.172 C 513.318,729.172 515.377,730.043 516.249,730.943 L 517.361,729.544 L 520.557,729.544 M 514.742,732.925 C 514.135,732.37 512.761,731.655 511.863,731.655 C 511.096,731.736 510.091,732.317 510.091,733.452 C 510.091,733.452 509.935,734.562 512.313,736.123 L 514.742,732.925 M 532.609,733.452 C 532.609,735.831 531.103,737.074 529.807,737.523 C 530.205,737.843 532.053,738.344 532.053,740.668 C 532.053,743.392 529.678,744.474 527.404,744.474 L 520.663,744.474 L 520.663,729.544 L 528.435,729.544 C 530.045,729.544 532.609,730.786 532.609,733.452 M 570.984,744.396 L 568.182,744.396 L 568.182,729.544 L 570.984,729.544 L 570.984,744.396 z M 557.004,738.134 L 557.004,740.825 C 557.004,740.825 556.369,740.959 555.682,740.825 C 554.81,740.617 554.017,739.928 553.566,739.401 L 553.566,740.509 L 550.767,740.509 L 550.767,729.544 L 553.621,729.544 L 553.621,734.562 C 553.461,737.974 555.444,738.555 557.004,738.134 M 550.104,738.134 L 550.104,740.825 C 550.104,740.825 549.445,740.959 548.811,740.825 C 547.938,740.617 547.172,739.928 546.724,739.401 L 546.724,740.509 L 543.842,740.509 L 543.842,729.544 L 546.775,729.544 L 546.775,734.562 C 546.616,737.974 548.598,738.555 550.104,738.134 M 567.68,734.353 C 567.786,737.579 566.016,740.959 562.211,740.986 C 558.8,741.065 556.74,738.21 556.74,735.464 C 556.74,731.894 559.197,729.33 562.526,729.33 C 565.143,729.33 567.178,731.181 567.549,733.083 L 564.587,733.083 C 564.084,732.212 563.4,731.841 562.367,731.841 C 560.939,731.841 559.566,732.925 559.566,734.353 L 567.68,734.353 M 543.473,729.544 C 543.207,729.964 542.996,731.231 542.996,731.736 C 542.996,731.736 543.049,735.278 542.996,737.418 C 542.969,739.875 540.697,740.825 538.45,740.825 C 534.908,740.825 533.641,739.188 533.641,737.26 L 536.179,737.26 C 536.387,738.607 537.367,738.844 538.213,738.844 C 539.955,738.844 540.302,737.655 540.273,737.366 C 540.167,736.387 538.77,736.546 537.076,736.255 C 533.877,735.805 533.006,734.062 533.006,732.688 C 533.006,730.415 535.199,729.251 537.156,729.251 C 538.846,729.251 539.955,730.043 540.461,730.44 C 540.565,729.992 540.67,729.489 540.67,729.544 L 543.473,729.544 M 528.99,740.405 C 528.99,738.712 527.324,738.45 526.638,738.45 L 523.41,738.45 L 523.41,742.097 L 526.742,742.097 C 527.772,742.097 528.99,741.592 528.99,740.405 M 564.535,736.466 L 559.699,736.466 C 559.699,737.843 560.887,738.768 562.184,738.739 C 563.478,738.739 564.535,737.814 564.535,736.466 M 529.307,733.851 C 529.307,732.264 527.483,731.841 526.98,731.841 L 523.465,731.841 L 523.465,736.228 L 526.795,736.228 C 529.123,736.228 529.307,734.748 529.307,733.851 M 540.302,735.038 C 540.485,733.452 540.302,732.793 539.877,732.264 C 539.269,731.499 537.736,731.471 537.736,731.471 C 537.497,731.393 535.912,731.552 535.888,732.739 C 535.888,734.113 537.604,734.353 540.302,735.038"
         id="path23"
         style="fill:#231f20;fill-opacity:1;fill-rule:nonzero;stroke:none" /></g></g></svg>